<svg width="30" height="26" viewBox="0 0 30 26" fill="none" xmlns="http://www.w3.org/2000/svg">
<path fill-rule="evenodd" clip-rule="evenodd" d="M30 2.42862C30 1.8603 29.7742 1.31526 29.3724 0.913394C28.9705 0.511531 28.4255 0.285767 27.8571 0.285767H2.14291C1.57459 0.285767 1.02954 0.511531 0.62768 0.913394C0.225817 1.31526 5.34058e-05 1.8603 5.34058e-05 2.42862C5.34058e-05 2.99694 0.225817 3.54198 0.62768 3.94385C1.02954 4.34571 1.57459 4.57147 2.14291 4.57147H27.8571C28.4255 4.57147 28.9705 4.34571 29.3724 3.94385C29.7742 3.54198 30 2.99694 30 2.42862Z" fill="#A6A6A6"/>
<path fill-rule="evenodd" clip-rule="evenodd" d="M30 13.1429C30 12.5745 29.7742 12.0295 29.3724 11.6276C28.9705 11.2258 28.4255 11 27.8571 11H2.14291C1.57459 11 1.02954 11.2258 0.627678 11.6276C0.225815 12.0295 5.34058e-05 12.5745 5.34058e-05 13.1429C5.34058e-05 13.7112 0.225815 14.2562 0.627678 14.6581C1.02954 15.0599 1.57459 15.2857 2.14291 15.2857H27.8571C28.4255 15.2857 28.9705 15.0599 29.3724 14.6581C29.7742 14.2562 30 13.7112 30 13.1429Z" fill="#A6A6A6"/>
<path fill-rule="evenodd" clip-rule="evenodd" d="M30 23.8571C30 23.2888 29.7742 22.7437 29.3724 22.3419C28.9705 21.94 28.4255 21.7142 27.8571 21.7142H15C14.4317 21.7142 13.8867 21.94 13.4848 22.3419C13.0829 22.7437 12.8572 23.2888 12.8572 23.8571C12.8572 24.4254 13.0829 24.9704 13.4848 25.3723C13.8867 25.7742 14.4317 25.9999 15 25.9999H27.8571C28.4255 25.9999 28.9705 25.7742 29.3724 25.3723C29.7742 24.9704 30 24.4254 30 23.8571Z" fill="#A6A6A6"/>
</svg>
