<svg width="24" height="24" viewBox="0 0 24 24" fill="none" xmlns="http://www.w3.org/2000/svg">
<path d="M22.8 4.80132H16.8V2.79746C16.7718 2.0293 16.4402 1.30363 15.8779 0.779551C15.3155 0.255468 14.5683 -0.0242725 13.8 0.00165401H10.2C9.43171 -0.0242725 8.68447 0.255468 8.12212 0.779551C7.55975 1.30363 7.22815 2.0293 7.2 2.79746V4.80132H1.2C0.88174 4.80132 0.576515 4.92774 0.351472 5.15277C0.126428 5.3778 0 5.683 0 6.00124C0 6.31948 0.126428 6.62468 0.351472 6.84971C0.576515 7.07474 0.88174 7.20116 1.2 7.20116H2.4V20.4002C2.4 21.355 2.77928 22.2706 3.45442 22.9457C4.12955 23.6207 5.04522 24 6 24H18C18.9548 24 19.8705 23.6207 20.5456 22.9457C21.2207 22.2706 21.6 21.355 21.6 20.4002V7.20116H22.8C23.1183 7.20116 23.4235 7.07474 23.6485 6.84971C23.8736 6.62468 24 6.31948 24 6.00124C24 5.683 23.8736 5.3778 23.6485 5.15277C23.4235 4.92774 23.1183 4.80132 22.8 4.80132ZM9.6 16.8005C9.6 17.1187 9.47357 17.4239 9.24853 17.649C9.02348 17.874 8.71826 18.0004 8.4 18.0004C8.08174 18.0004 7.77652 17.874 7.55147 17.649C7.32643 17.4239 7.2 17.1187 7.2 16.8005V12.0008C7.2 11.6826 7.32643 11.3774 7.55147 11.1524C7.77652 10.9273 8.08174 10.8009 8.4 10.8009C8.71826 10.8009 9.02348 10.9273 9.24853 11.1524C9.47357 11.3774 9.6 11.6826 9.6 12.0008V16.8005ZM9.6 2.79746C9.6 2.60547 9.852 2.40149 10.2 2.40149H13.8C14.148 2.40149 14.4 2.60547 14.4 2.79746V4.80132H9.6V2.79746ZM16.8 16.8005C16.8 17.1187 16.6736 17.4239 16.4485 17.649C16.2235 17.874 15.9183 18.0004 15.6 18.0004C15.2817 18.0004 14.9765 17.874 14.7515 17.649C14.5264 17.4239 14.4 17.1187 14.4 16.8005V12.0008C14.4 11.6826 14.5264 11.3774 14.7515 11.1524C14.9765 10.9273 15.2817 10.8009 15.6 10.8009C15.9183 10.8009 16.2235 10.9273 16.4485 11.1524C16.6736 11.3774 16.8 11.6826 16.8 12.0008V16.8005Z" fill="#353535"/>
</svg>
