<svg width="35" height="35" viewBox="0 0 35 35" fill="none" xmlns="http://www.w3.org/2000/svg">
<path d="M17.5 0C7.8349 0 0 7.8351 0 17.5005C0.000119646 19.7986 0.452889 22.0743 1.33246 24.1975C2.21202 26.3207 3.50117 28.2499 5.12628 29.8749C6.75139 31.4999 8.68064 32.7888 10.8039 33.6682C12.9271 34.5476 15.2028 35.0001 17.5009 35C19.799 34.9999 22.0746 34.5471 24.1978 33.6675C26.321 32.7879 28.2501 31.4987 29.875 29.8736C31.5 28.2484 32.7889 26.3191 33.6682 24.1958C34.5476 22.0725 35.0001 19.7968 35 17.4986C35 7.8351 27.1633 0 17.5 0ZM17.2247 27.7072H17.1318C15.7063 27.6653 14.7 26.6135 14.7419 25.2079C14.782 23.8261 15.812 22.8217 17.1901 22.8217L17.274 22.8253C18.7396 22.8673 19.7349 23.9082 19.693 25.3538C19.651 26.7392 18.6393 27.7072 17.2247 27.7072ZM23.224 15.8015C22.8885 16.2754 22.1521 16.8697 21.2224 17.5934L20.1979 18.2989C19.6365 18.7364 19.2974 19.1502 19.1716 19.5531C19.0695 19.8703 19.0221 19.956 19.013 20.6031V20.7672H15.1029L15.1138 20.4354C15.163 19.0791 15.1958 18.277 15.7591 17.6153C16.6432 16.5799 18.5938 15.322 18.6758 15.2691C18.9434 15.0737 19.1768 14.8353 19.3667 14.5637C19.7768 13.9967 19.9573 13.5519 19.9573 13.118C19.9573 12.5092 19.7786 11.9459 19.4232 11.4482C19.0805 10.9633 18.4297 10.7227 17.4891 10.7227C16.5557 10.7227 15.9159 11.018 15.5349 11.6269C15.1411 12.2485 14.9424 12.9029 14.9424 13.572V13.7397H10.912L10.9193 13.5647C11.0232 11.0982 11.9055 9.32082 13.5352 8.28355C14.5615 7.62546 15.8393 7.29186 17.3286 7.29186C19.2755 7.29186 20.9234 7.76583 22.2177 8.69918C23.532 9.6453 24.1974 11.0636 24.1974 12.9121C24.1956 13.9457 23.8693 14.9173 23.224 15.8015Z" fill="#A6A6A6"/>
</svg>
