<svg width="134" height="34" viewBox="0 0 134 34" fill="none" xmlns="http://www.w3.org/2000/svg">
<path d="M9.808 6.48C9.808 7.16267 9.648 7.78667 9.328 8.352C9.01867 8.90667 8.544 9.35467 7.904 9.696C7.27467 10.0267 6.50133 10.192 5.584 10.192H4.032V14H0.896V2.72H5.584C6.49067 2.72 7.25867 2.88 7.888 3.2C8.528 3.52 9.008 3.96267 9.328 4.528C9.648 5.09333 9.808 5.744 9.808 6.48ZM5.28 7.696C6.16533 7.696 6.608 7.29067 6.608 6.48C6.608 5.65867 6.16533 5.248 5.28 5.248H4.032V7.696H5.28ZM12.6519 4.192C12.0972 4.192 11.6492 4.04267 11.3079 3.744C10.9772 3.43467 10.8119 3.05067 10.8119 2.592C10.8119 2.12267 10.9772 1.73333 11.3079 1.424C11.6492 1.11467 12.0972 0.959999 12.6519 0.959999C13.1959 0.959999 13.6332 1.11467 13.9639 1.424C14.3052 1.73333 14.4759 2.12267 14.4759 2.592C14.4759 3.05067 14.3052 3.43467 13.9639 3.744C13.6332 4.04267 13.1959 4.192 12.6519 4.192ZM14.2039 5.024V14H11.0679V5.024H14.2039ZM18.9658 11.392H22.7898V14H15.5098V11.52L19.0778 7.632H15.5418V5.024H22.6618V7.504L18.9658 11.392ZM27.0751 11.392H30.8991V14H23.6191V11.52L27.1871 7.632H23.6511V5.024H30.7711V7.504L27.0751 11.392ZM40.7845 9.408C40.7845 9.65333 40.7685 9.89867 40.7365 10.144H34.8005C34.8325 10.6347 34.9658 11.0027 35.2005 11.248C35.4458 11.4827 35.7552 11.6 36.1285 11.6C36.6512 11.6 37.0245 11.3653 37.2485 10.896H40.5925C40.4538 11.5147 40.1818 12.0693 39.7765 12.56C39.3818 13.04 38.8805 13.4187 38.2725 13.696C37.6645 13.9733 36.9925 14.112 36.2565 14.112C35.3712 14.112 34.5818 13.9253 33.8885 13.552C33.2058 13.1787 32.6672 12.6453 32.2725 11.952C31.8885 11.2587 31.6965 10.4427 31.6965 9.504C31.6965 8.56533 31.8885 7.75467 32.2725 7.072C32.6565 6.37867 33.1898 5.84533 33.8725 5.472C34.5658 5.09867 35.3605 4.912 36.2565 4.912C37.1418 4.912 37.9258 5.09333 38.6085 5.456C39.2912 5.81867 39.8245 6.34133 40.2085 7.024C40.5925 7.696 40.7845 8.49067 40.7845 9.408ZM37.5845 8.624C37.5845 8.24 37.4565 7.94133 37.2005 7.728C36.9445 7.504 36.6245 7.392 36.2405 7.392C35.8565 7.392 35.5418 7.49867 35.2965 7.712C35.0512 7.91467 34.8912 8.21867 34.8165 8.624H37.5845ZM45.2039 6.608C45.5559 6.096 45.9825 5.69067 46.4839 5.392C46.9852 5.09333 47.5239 4.944 48.0999 4.944V8.288H47.2199C46.5372 8.288 46.0305 8.42133 45.6999 8.688C45.3692 8.95467 45.2039 9.41867 45.2039 10.08V14H42.0679V5.024H45.2039V6.608ZM50.8081 4.192C50.2535 4.192 49.8055 4.04267 49.4641 3.744C49.1335 3.43467 48.9681 3.05067 48.9681 2.592C48.9681 2.12267 49.1335 1.73333 49.4641 1.424C49.8055 1.11467 50.2535 0.959999 50.8081 0.959999C51.3521 0.959999 51.7895 1.11467 52.1201 1.424C52.4615 1.73333 52.6321 2.12267 52.6321 2.592C52.6321 3.05067 52.4615 3.43467 52.1201 3.744C51.7895 4.04267 51.3521 4.192 50.8081 4.192ZM52.3601 5.024V14H49.2241V5.024H52.3601ZM53.634 9.504C53.634 8.576 53.7993 7.76533 54.13 7.072C54.4713 6.37867 54.93 5.84533 55.506 5.472C56.0927 5.09867 56.7433 4.912 57.458 4.912C58.0767 4.912 58.61 5.03467 59.058 5.28C59.506 5.52533 59.8527 5.856 60.098 6.272V5.024H63.234V14H60.098V12.752C59.8527 13.168 59.5007 13.4987 59.042 13.744C58.594 13.9893 58.066 14.112 57.458 14.112C56.7433 14.112 56.0927 13.9253 55.506 13.552C54.93 13.1787 54.4713 12.6453 54.13 11.952C53.7993 11.248 53.634 10.432 53.634 9.504ZM60.098 9.504C60.098 8.928 59.938 8.47467 59.618 8.144C59.3087 7.81333 58.9247 7.648 58.466 7.648C57.9967 7.648 57.6073 7.81333 57.298 8.144C56.9887 8.464 56.834 8.91733 56.834 9.504C56.834 10.08 56.9887 10.5387 57.298 10.88C57.6073 11.2107 57.9967 11.376 58.466 11.376C58.9247 11.376 59.3087 11.2107 59.618 10.88C59.938 10.5493 60.098 10.0907 60.098 9.504ZM6.7 18.9C8.18 18.9 9.47333 19.2 10.58 19.8C11.7 20.3867 12.56 21.2133 13.16 22.28C13.76 23.3467 14.06 24.5667 14.06 25.94C14.06 27.3 13.7533 28.5133 13.14 29.58C12.54 30.6467 11.68 31.4867 10.56 32.1C9.45333 32.7 8.16667 33 6.7 33H1.12V18.9H6.7ZM6.4 29.54C7.54667 29.54 8.44667 29.2267 9.1 28.6C9.75333 27.9733 10.08 27.0867 10.08 25.94C10.08 24.78 9.75333 23.8867 9.1 23.26C8.44667 22.62 7.54667 22.3 6.4 22.3H5.04V29.54H6.4ZM22.587 33.14C21.267 33.14 20.0537 32.8333 18.947 32.22C17.8404 31.5933 16.9604 30.7333 16.307 29.64C15.667 28.5333 15.347 27.2867 15.347 25.9C15.347 24.5133 15.667 23.2733 16.307 22.18C16.9604 21.0733 17.8404 20.2133 18.947 19.6C20.0537 18.9867 21.267 18.68 22.587 18.68C23.9204 18.68 25.1337 18.9867 26.227 19.6C27.3337 20.2133 28.207 21.0733 28.847 22.18C29.487 23.2733 29.807 24.5133 29.807 25.9C29.807 27.2867 29.487 28.5333 28.847 29.64C28.207 30.7333 27.3337 31.5933 26.227 32.22C25.1204 32.8333 23.907 33.14 22.587 33.14ZM22.587 29.5C23.587 29.5 24.3737 29.1733 24.947 28.52C25.5337 27.8667 25.827 26.9933 25.827 25.9C25.827 24.78 25.5337 23.9 24.947 23.26C24.3737 22.6067 23.587 22.28 22.587 22.28C21.5737 22.28 20.7804 22.6067 20.207 23.26C19.6337 23.9 19.347 24.78 19.347 25.9C19.347 27.0067 19.6337 27.8867 20.207 28.54C20.7804 29.18 21.5737 29.5 22.587 29.5ZM44.6292 33H40.7092L35.4892 25.12V33H31.5692V18.9H35.4892L40.7092 26.88V18.9H44.6292V33ZM57.8303 33L55.0303 27.8H54.6103V33H50.6903V18.9H56.8703C58.0036 18.9 58.9636 19.1 59.7503 19.5C60.537 19.8867 61.1303 20.4267 61.5303 21.12C61.9303 21.8 62.1303 22.5667 62.1303 23.42C62.1303 24.38 61.8636 25.2267 61.3303 25.96C60.8103 26.68 60.0436 27.1933 59.0303 27.5L62.2103 33H57.8303ZM54.6103 25.12H56.5503C57.0836 25.12 57.4836 24.9933 57.7503 24.74C58.017 24.4867 58.1503 24.12 58.1503 23.64C58.1503 23.1867 58.0103 22.8333 57.7303 22.58C57.4636 22.3133 57.0703 22.18 56.5503 22.18H54.6103V25.12ZM67.833 22.04V24.34H72.333V27.32H67.833V29.86H72.933V33H63.913V18.9H72.933V22.04H67.833ZM91.33 18.9V33H87.41V25.22L84.75 33H81.47L78.79 25.16V33H74.87V18.9H79.61L83.15 28.06L86.61 18.9H91.33ZM100.321 33.14C99.0014 33.14 97.7881 32.8333 96.6814 32.22C95.5747 31.5933 94.6947 30.7333 94.0414 29.64C93.4014 28.5333 93.0814 27.2867 93.0814 25.9C93.0814 24.5133 93.4014 23.2733 94.0414 22.18C94.6947 21.0733 95.5747 20.2133 96.6814 19.6C97.7881 18.9867 99.0014 18.68 100.321 18.68C101.655 18.68 102.868 18.9867 103.961 19.6C105.068 20.2133 105.941 21.0733 106.581 22.18C107.221 23.2733 107.541 24.5133 107.541 25.9C107.541 27.2867 107.221 28.5333 106.581 29.64C105.941 30.7333 105.068 31.5933 103.961 32.22C102.855 32.8333 101.641 33.14 100.321 33.14ZM100.321 29.5C101.321 29.5 102.108 29.1733 102.681 28.52C103.268 27.8667 103.561 26.9933 103.561 25.9C103.561 24.78 103.268 23.9 102.681 23.26C102.108 22.6067 101.321 22.28 100.321 22.28C99.3081 22.28 98.5147 22.6067 97.9414 23.26C97.3681 23.9 97.0814 24.78 97.0814 25.9C97.0814 27.0067 97.3681 27.8867 97.9414 28.54C98.5147 29.18 99.3081 29.5 100.321 29.5ZM113.224 30H117.604V33H109.304V18.9H113.224V30ZM125.888 33.14C124.568 33.14 123.354 32.8333 122.248 32.22C121.141 31.5933 120.261 30.7333 119.608 29.64C118.968 28.5333 118.648 27.2867 118.648 25.9C118.648 24.5133 118.968 23.2733 119.608 22.18C120.261 21.0733 121.141 20.2133 122.248 19.6C123.354 18.9867 124.568 18.68 125.888 18.68C127.221 18.68 128.434 18.9867 129.528 19.6C130.634 20.2133 131.508 21.0733 132.148 22.18C132.788 23.2733 133.108 24.5133 133.108 25.9C133.108 27.2867 132.788 28.5333 132.148 29.64C131.508 30.7333 130.634 31.5933 129.528 32.22C128.421 32.8333 127.208 33.14 125.888 33.14ZM125.888 29.5C126.888 29.5 127.674 29.1733 128.248 28.52C128.834 27.8667 129.128 26.9933 129.128 25.9C129.128 24.78 128.834 23.9 128.248 23.26C127.674 22.6067 126.888 22.28 125.888 22.28C124.874 22.28 124.081 22.6067 123.508 23.26C122.934 23.9 122.648 24.78 122.648 25.9C122.648 27.0067 122.934 27.8867 123.508 28.54C124.081 29.18 124.874 29.5 125.888 29.5Z" fill="#E74423"/>
</svg>
